<mxfile host="Electron" agent="Mozilla/5.0 (X11; Linux x86_64) AppleWebKit/537.36 (KHTML, like Gecko) draw.io/28.1.2 Chrome/138.0.7204.243 Electron/37.4.0 Safari/537.36" version="28.1.2">
  <diagram name="Page-1" id="ay0BO8NNl2YzuJrREBhZ">
    <mxGraphModel dx="419" dy="316" grid="1" gridSize="10" guides="1" tooltips="1" connect="1" arrows="1" fold="1" page="1" pageScale="1" pageWidth="827" pageHeight="1169" math="1" shadow="0">
      <root>
        <mxCell id="0" />
        <mxCell id="1" parent="0" />
        <mxCell id="z62Dlai4IE1WZixnNEdu-1" value="" style="rounded=0;whiteSpace=wrap;html=1;" parent="1" vertex="1">
          <mxGeometry x="30" y="27" width="110" height="113" as="geometry" />
        </mxCell>
        <mxCell id="z62Dlai4IE1WZixnNEdu-3" value="mem_req_t0" style="text;html=1;align=right;verticalAlign=middle;whiteSpace=wrap;rounded=0;" parent="1" vertex="1">
          <mxGeometry x="70" y="53" width="70" height="10" as="geometry" />
        </mxCell>
        <mxCell id="z62Dlai4IE1WZixnNEdu-5" value="mem_addr_t0" style="text;html=1;align=right;verticalAlign=middle;whiteSpace=wrap;rounded=0;" parent="1" vertex="1">
          <mxGeometry x="60" y="66" width="80" height="10" as="geometry" />
        </mxCell>
        <mxCell id="z62Dlai4IE1WZixnNEdu-6" value="mem_wdata_t0" style="text;html=1;align=right;verticalAlign=middle;whiteSpace=wrap;rounded=0;" parent="1" vertex="1">
          <mxGeometry x="50" y="42" width="90" height="10" as="geometry" />
        </mxCell>
        <mxCell id="z62Dlai4IE1WZixnNEdu-7" value="mem_gnt_t0" style="text;html=1;align=right;verticalAlign=middle;whiteSpace=wrap;rounded=0;" parent="1" vertex="1">
          <mxGeometry x="70" y="126.5" width="70" height="10" as="geometry" />
        </mxCell>
        <mxCell id="z62Dlai4IE1WZixnNEdu-8" value="mem_rdata_t0" style="text;html=1;align=right;verticalAlign=middle;whiteSpace=wrap;rounded=0;" parent="1" vertex="1">
          <mxGeometry x="50" y="90" width="90" height="10" as="geometry" />
        </mxCell>
        <mxCell id="z62Dlai4IE1WZixnNEdu-10" value="interrupt_t0" style="text;html=1;align=right;verticalAlign=middle;whiteSpace=wrap;rounded=0;" parent="1" vertex="1">
          <mxGeometry x="65" y="108" width="70" height="10" as="geometry" />
        </mxCell>
        <mxCell id="z62Dlai4IE1WZixnNEdu-29" value="" style="endArrow=classic;html=1;rounded=0;entryX=1;entryY=0.5;entryDx=0;entryDy=0;exitX=0;exitY=0.5;exitDx=0;exitDy=0;" parent="1" target="z62Dlai4IE1WZixnNEdu-7" edge="1">
          <mxGeometry width="50" height="50" relative="1" as="geometry">
            <mxPoint x="155" y="131.5" as="sourcePoint" />
            <mxPoint x="140" y="127.83" as="targetPoint" />
          </mxGeometry>
        </mxCell>
        <mxCell id="z62Dlai4IE1WZixnNEdu-32" value="" style="endArrow=classic;html=1;rounded=0;entryX=1;entryY=0.5;entryDx=0;entryDy=0;exitX=0;exitY=0.5;exitDx=0;exitDy=0;" parent="1" edge="1">
          <mxGeometry width="50" height="50" relative="1" as="geometry">
            <mxPoint x="155" y="113" as="sourcePoint" />
            <mxPoint x="140" y="113" as="targetPoint" />
          </mxGeometry>
        </mxCell>
        <mxCell id="z62Dlai4IE1WZixnNEdu-33" value="" style="endArrow=classic;html=1;rounded=0;entryX=1;entryY=0.5;entryDx=0;entryDy=0;exitX=0;exitY=0.5;exitDx=0;exitDy=0;" parent="1" edge="1">
          <mxGeometry width="50" height="50" relative="1" as="geometry">
            <mxPoint x="155" y="94.83" as="sourcePoint" />
            <mxPoint x="140" y="94.83" as="targetPoint" />
          </mxGeometry>
        </mxCell>
        <mxCell id="WjVil9tMfccs5IJe3jmQ-6" value="CPU" style="text;html=1;align=right;verticalAlign=middle;whiteSpace=wrap;rounded=0;" parent="1" vertex="1">
          <mxGeometry x="30" y="80" width="30" height="10" as="geometry" />
        </mxCell>
        <mxCell id="S-SduRVJnLORTsYUvYDb-1" value="mem_addr" style="text;html=1;align=right;verticalAlign=middle;whiteSpace=wrap;rounded=0;" parent="1" vertex="1">
          <mxGeometry x="60" y="30" width="80" height="10" as="geometry" />
        </mxCell>
        <mxCell id="S-SduRVJnLORTsYUvYDb-2" value="" style="shape=xor;whiteSpace=wrap;html=1;rotation=0;" parent="1" vertex="1">
          <mxGeometry x="148" y="52" width="27" height="25" as="geometry" />
        </mxCell>
        <mxCell id="S-SduRVJnLORTsYUvYDb-3" value="" style="endArrow=classic;html=1;rounded=0;entryX=0.175;entryY=0.75;entryDx=0;entryDy=0;entryPerimeter=0;exitX=1;exitY=0.5;exitDx=0;exitDy=0;" parent="1" source="z62Dlai4IE1WZixnNEdu-5" target="S-SduRVJnLORTsYUvYDb-2" edge="1">
          <mxGeometry width="50" height="50" relative="1" as="geometry">
            <mxPoint x="130" y="153" as="sourcePoint" />
            <mxPoint x="180" y="103" as="targetPoint" />
          </mxGeometry>
        </mxCell>
        <mxCell id="S-SduRVJnLORTsYUvYDb-4" value="" style="endArrow=classic;html=1;rounded=0;entryX=0.175;entryY=0.25;entryDx=0;entryDy=0;entryPerimeter=0;exitX=1;exitY=0.5;exitDx=0;exitDy=0;" parent="1" source="z62Dlai4IE1WZixnNEdu-3" target="S-SduRVJnLORTsYUvYDb-2" edge="1">
          <mxGeometry width="50" height="50" relative="1" as="geometry">
            <mxPoint x="170" y="63" as="sourcePoint" />
            <mxPoint x="188" y="64" as="targetPoint" />
          </mxGeometry>
        </mxCell>
        <mxCell id="S-SduRVJnLORTsYUvYDb-7" value="in_periph_range" style="rounded=0;whiteSpace=wrap;html=1;" parent="1" vertex="1">
          <mxGeometry x="152" y="28" width="91" height="14" as="geometry" />
        </mxCell>
        <mxCell id="S-SduRVJnLORTsYUvYDb-8" value="" style="endArrow=classic;html=1;rounded=0;exitX=1;exitY=0.5;exitDx=0;exitDy=0;entryX=0;entryY=0.5;entryDx=0;entryDy=0;" parent="1" source="S-SduRVJnLORTsYUvYDb-1" target="S-SduRVJnLORTsYUvYDb-7" edge="1">
          <mxGeometry width="50" height="50" relative="1" as="geometry">
            <mxPoint x="170" y="90" as="sourcePoint" />
            <mxPoint x="220" y="40" as="targetPoint" />
          </mxGeometry>
        </mxCell>
        <mxCell id="S-SduRVJnLORTsYUvYDb-9" value="" style="shape=or;whiteSpace=wrap;html=1;rotation=90;" parent="1" vertex="1">
          <mxGeometry x="241" y="69" width="19" height="32" as="geometry" />
        </mxCell>
        <mxCell id="S-SduRVJnLORTsYUvYDb-10" value="" style="endArrow=classic;html=1;rounded=0;exitX=1;exitY=0.5;exitDx=0;exitDy=0;entryX=0.001;entryY=0.722;entryDx=0;entryDy=0;entryPerimeter=0;" parent="1" source="z62Dlai4IE1WZixnNEdu-6" target="S-SduRVJnLORTsYUvYDb-9" edge="1">
          <mxGeometry width="50" height="50" relative="1" as="geometry">
            <mxPoint x="190" y="90" as="sourcePoint" />
            <mxPoint x="249" y="60" as="targetPoint" />
            <Array as="points">
              <mxPoint x="243" y="47" />
            </Array>
          </mxGeometry>
        </mxCell>
        <mxCell id="S-SduRVJnLORTsYUvYDb-11" value="" style="endArrow=classic;html=1;rounded=0;entryX=0;entryY=0.25;entryDx=0;entryDy=0;entryPerimeter=0;exitX=1;exitY=0.5;exitDx=0;exitDy=0;" parent="1" source="S-SduRVJnLORTsYUvYDb-7" target="S-SduRVJnLORTsYUvYDb-9" edge="1">
          <mxGeometry width="50" height="50" relative="1" as="geometry">
            <mxPoint x="190" y="90" as="sourcePoint" />
            <mxPoint x="240" y="40" as="targetPoint" />
            <Array as="points">
              <mxPoint x="258" y="35" />
            </Array>
          </mxGeometry>
        </mxCell>
        <mxCell id="S-SduRVJnLORTsYUvYDb-13" value="AND" style="text;html=1;align=center;verticalAlign=middle;whiteSpace=wrap;rounded=0;" parent="1" vertex="1">
          <mxGeometry x="249" y="74" width="4" height="18" as="geometry" />
        </mxCell>
        <mxCell id="S-SduRVJnLORTsYUvYDb-16" value="" style="shape=xor;whiteSpace=wrap;html=1;rotation=90;" parent="1" vertex="1">
          <mxGeometry x="193.5" y="61.5" width="24" height="25" as="geometry" />
        </mxCell>
        <mxCell id="S-SduRVJnLORTsYUvYDb-20" value="" style="endArrow=classic;html=1;rounded=0;exitX=1;exitY=0.5;exitDx=0;exitDy=0;exitPerimeter=0;entryX=0.175;entryY=0.75;entryDx=0;entryDy=0;entryPerimeter=0;" parent="1" source="S-SduRVJnLORTsYUvYDb-2" target="S-SduRVJnLORTsYUvYDb-16" edge="1">
          <mxGeometry width="50" height="50" relative="1" as="geometry">
            <mxPoint x="170" y="110" as="sourcePoint" />
            <mxPoint x="220" y="60" as="targetPoint" />
            <Array as="points">
              <mxPoint x="184" y="64" />
              <mxPoint x="184" y="51" />
              <mxPoint x="199" y="51" />
            </Array>
          </mxGeometry>
        </mxCell>
        <mxCell id="S-SduRVJnLORTsYUvYDb-21" value="" style="endArrow=classic;html=1;rounded=0;entryX=0.175;entryY=0.25;entryDx=0;entryDy=0;entryPerimeter=0;" parent="1" source="3VVz8B5Pgaj0WnmAmY1e-1" target="S-SduRVJnLORTsYUvYDb-16" edge="1">
          <mxGeometry width="50" height="50" relative="1" as="geometry">
            <mxPoint x="211" y="47" as="sourcePoint" />
            <mxPoint x="220" y="60" as="targetPoint" />
          </mxGeometry>
        </mxCell>
        <mxCell id="S-SduRVJnLORTsYUvYDb-24" value="" style="endArrow=classic;html=1;rounded=0;entryX=1;entryY=0.5;entryDx=0;entryDy=0;exitX=1;exitY=0.5;exitDx=0;exitDy=0;exitPerimeter=0;" parent="1" source="S-SduRVJnLORTsYUvYDb-16" edge="1">
          <mxGeometry width="50" height="50" relative="1" as="geometry">
            <mxPoint x="120" y="110" as="sourcePoint" />
            <mxPoint x="181" y="95" as="targetPoint" />
            <Array as="points">
              <mxPoint x="206" y="95" />
            </Array>
          </mxGeometry>
        </mxCell>
        <mxCell id="S-SduRVJnLORTsYUvYDb-25" value="" style="endArrow=classic;html=1;rounded=0;entryX=0.175;entryY=0.75;entryDx=0;entryDy=0;entryPerimeter=0;" parent="1" target="S-SduRVJnLORTsYUvYDb-27" edge="1">
          <mxGeometry width="50" height="50" relative="1" as="geometry">
            <mxPoint x="199" y="51" as="sourcePoint" />
            <mxPoint x="210" y="60" as="targetPoint" />
            <Array as="points">
              <mxPoint x="232" y="51" />
              <mxPoint x="232" y="83" />
              <mxPoint x="232" y="107" />
            </Array>
          </mxGeometry>
        </mxCell>
        <mxCell id="S-SduRVJnLORTsYUvYDb-26" value="" style="endArrow=classic;html=1;rounded=0;entryX=0.175;entryY=0.25;entryDx=0;entryDy=0;entryPerimeter=0;exitX=1;exitY=0.5;exitDx=0;exitDy=0;exitPerimeter=0;" parent="1" source="S-SduRVJnLORTsYUvYDb-9" target="S-SduRVJnLORTsYUvYDb-27" edge="1">
          <mxGeometry width="50" height="50" relative="1" as="geometry">
            <mxPoint x="160" y="110" as="sourcePoint" />
            <mxPoint x="254.25" y="94.70000000000002" as="targetPoint" />
            <Array as="points">
              <mxPoint x="251" y="120" />
            </Array>
          </mxGeometry>
        </mxCell>
        <mxCell id="S-SduRVJnLORTsYUvYDb-27" value="" style="shape=xor;whiteSpace=wrap;html=1;rotation=-180;" parent="1" vertex="1">
          <mxGeometry x="199" y="101" width="27" height="25" as="geometry" />
        </mxCell>
        <mxCell id="S-SduRVJnLORTsYUvYDb-28" value="" style="endArrow=classic;html=1;rounded=0;exitX=1;exitY=0.5;exitDx=0;exitDy=0;exitPerimeter=0;entryX=1;entryY=0.5;entryDx=0;entryDy=0;" parent="1" source="S-SduRVJnLORTsYUvYDb-27" target="eUpKCaYr4HKRpGux0rQr-4" edge="1">
          <mxGeometry width="50" height="50" relative="1" as="geometry">
            <mxPoint x="160" y="110" as="sourcePoint" />
            <mxPoint x="182" y="112" as="targetPoint" />
          </mxGeometry>
        </mxCell>
        <mxCell id="S-SduRVJnLORTsYUvYDb-29" value="" style="endArrow=classic;html=1;rounded=0;entryX=1;entryY=0.5;entryDx=0;entryDy=0;" parent="1" edge="1">
          <mxGeometry width="50" height="50" relative="1" as="geometry">
            <mxPoint x="195" y="113" as="sourcePoint" />
            <mxPoint x="181" y="131.5" as="targetPoint" />
            <Array as="points">
              <mxPoint x="195" y="132" />
            </Array>
          </mxGeometry>
        </mxCell>
        <mxCell id="3VVz8B5Pgaj0WnmAmY1e-1" value="" style="ellipse;whiteSpace=wrap;html=1;aspect=fixed;fillColor=#000000;" parent="1" vertex="1">
          <mxGeometry x="211" y="46" width="2" height="2" as="geometry" />
        </mxCell>
        <mxCell id="3VVz8B5Pgaj0WnmAmY1e-3" value="" style="ellipse;whiteSpace=wrap;html=1;aspect=fixed;fillColor=#000000;" parent="1" vertex="1">
          <mxGeometry x="198" y="50" width="2" height="2" as="geometry" />
        </mxCell>
        <mxCell id="3VVz8B5Pgaj0WnmAmY1e-4" value="" style="ellipse;whiteSpace=wrap;html=1;aspect=fixed;fillColor=#000000;" parent="1" vertex="1">
          <mxGeometry x="194" y="112" width="2" height="2" as="geometry" />
        </mxCell>
        <mxCell id="3VVz8B5Pgaj0WnmAmY1e-5" value="OR" style="text;html=1;align=center;verticalAlign=middle;whiteSpace=wrap;rounded=0;" parent="1" vertex="1">
          <mxGeometry x="155" y="55" width="19" height="19" as="geometry" />
        </mxCell>
        <mxCell id="3VVz8B5Pgaj0WnmAmY1e-6" value="OR" style="text;html=1;align=center;verticalAlign=middle;whiteSpace=wrap;rounded=0;" parent="1" vertex="1">
          <mxGeometry x="196" y="66" width="19" height="19" as="geometry" />
        </mxCell>
        <mxCell id="3VVz8B5Pgaj0WnmAmY1e-7" value="OR" style="text;html=1;align=center;verticalAlign=middle;whiteSpace=wrap;rounded=0;" parent="1" vertex="1">
          <mxGeometry x="200" y="104" width="19" height="19" as="geometry" />
        </mxCell>
        <mxCell id="eUpKCaYr4HKRpGux0rQr-2" value="" style="rounded=0;whiteSpace=wrap;html=1;" vertex="1" parent="1">
          <mxGeometry x="155" y="87.25" width="26" height="15.5" as="geometry" />
        </mxCell>
        <mxCell id="eUpKCaYr4HKRpGux0rQr-1" value="$$\infty$$" style="text;html=1;align=center;verticalAlign=middle;whiteSpace=wrap;rounded=0;" vertex="1" parent="1">
          <mxGeometry x="155" y="86.75" width="26" height="16.25" as="geometry" />
        </mxCell>
        <mxCell id="eUpKCaYr4HKRpGux0rQr-3" value="" style="rounded=0;whiteSpace=wrap;html=1;" vertex="1" parent="1">
          <mxGeometry x="155" y="105.36999999999999" width="26" height="15.5" as="geometry" />
        </mxCell>
        <mxCell id="eUpKCaYr4HKRpGux0rQr-4" value="$$\infty$$" style="text;html=1;align=center;verticalAlign=middle;whiteSpace=wrap;rounded=0;" vertex="1" parent="1">
          <mxGeometry x="155" y="104.86999999999999" width="26" height="16.25" as="geometry" />
        </mxCell>
        <mxCell id="eUpKCaYr4HKRpGux0rQr-5" value="" style="rounded=0;whiteSpace=wrap;html=1;" vertex="1" parent="1">
          <mxGeometry x="155" y="123.87" width="26" height="15.5" as="geometry" />
        </mxCell>
        <mxCell id="eUpKCaYr4HKRpGux0rQr-6" value="$$\infty$$" style="text;html=1;align=center;verticalAlign=middle;whiteSpace=wrap;rounded=0;" vertex="1" parent="1">
          <mxGeometry x="155" y="123.37" width="26" height="16.25" as="geometry" />
        </mxCell>
      </root>
    </mxGraphModel>
  </diagram>
</mxfile>
